<?xml version="1.0" encoding="UTF-8"?>
<svg version="1.1" xmlns="http://www.w3.org/2000/svg" width="292" height="130">
<path d="M0 0 C0.8971875 0.54785156 1.794375 1.09570312 2.71875 1.66015625 C14.00366739 9.20926995 22.4098659 19.83617495 26 33 C26 34.32 26 35.64 26 37 C26.66 37 27.32 37 28 37 C27.99097656 36.42894531 27.98195313 35.85789063 27.97265625 35.26953125 C28.35474503 24.82023372 33.48358429 16.06122904 41 9 C41.99 7.9790625 41.99 7.9790625 43 6.9375 C51.60288373 -1.39654361 60.87495471 -4.45072389 72.6875 -4.5625 C82.80802088 -4.39672001 90.60492041 -2.27683994 98.11328125 4.8203125 C105.76649188 13.66190987 109.36310448 22.75253305 108.9375 34.3125 C107.60751883 47.45944029 100.19852726 61.53865768 91 71 C90.34 71 89.68 71 89 71 C89 71.66 89 72.32 89 73 C87.89502583 74.17403506 86.77764269 75.33796193 85.61328125 76.453125 C83.76623852 78.22413934 81.98092035 80.04974378 80.1875 81.875 C68.75868523 93.26156407 55.78921249 103.19566333 43 113 C41.89167683 113.85644708 40.78362653 114.71324734 39.67578125 115.5703125 C38.49227709 116.48449099 37.30868346 117.39855368 36.125 118.3125 C35.56466064 118.7458667 35.00432129 119.1792334 34.42700195 119.62573242 C27.43193813 125.01366412 27.43193813 125.01366412 24.77734375 124.9296875 C20.89188566 123.62907002 17.88644861 121.48582285 14.5625 119.125 C13.86092773 118.63467285 13.15935547 118.1443457 12.43652344 117.63916016 C6.56748701 113.49592196 0.91283411 109.10809153 -4.6953125 104.62109375 C-7.78520345 102.15260819 -10.94417648 99.78800465 -14.125 97.4375 C-22.16924887 91.43931175 -29.97474731 85.18190498 -37 78 C-37.66 77.34 -38.32 76.68 -39 76 C-39 75.01 -39 74.02 -39 73 C-39.57878906 72.95746094 -40.15757813 72.91492188 -40.75390625 72.87109375 C-45.80141696 70.91353742 -48.40695479 63.58293677 -51 59 C-51.51433594 58.13246094 -52.02867188 57.26492187 -52.55859375 56.37109375 C-58.3968529 45.85529759 -59.10152166 33.70450143 -57 22 C-53.98253896 12.46049312 -46.83687404 3.89628446 -38.1875 -1.0625 C-27.5057749 -6.52983106 -10.16021924 -6.31436161 0 0 Z " fill="#E3607A" transform="translate(119,4)"/>
<path d="M0 0 C1.875 1.5 1.875 1.5 3 4 C3.40446742 9.01539601 3.52066197 13.54036728 1 18 C-2.14811245 20.35356017 -5.52914969 22.1680248 -9 24 C-10.62667857 24.89278172 -12.25179796 25.78841297 -13.875 26.6875 C-14.57367188 27.06261719 -15.27234375 27.43773438 -15.9921875 27.82421875 C-18.07660953 28.98147968 -18.07660953 28.98147968 -20.0703125 30.64453125 C-22 32 -22 32 -25 32 C-25 32.66 -25 33.32 -25 34 C-22.35989757 35.33773047 -19.70388899 36.60906456 -17 37.8125 C-15.83597656 38.33263672 -15.83597656 38.33263672 -14.6484375 38.86328125 C-12.73044453 39.68649062 -10.79556514 40.47071586 -8.8515625 41.23046875 C-7.78679688 41.64941406 -6.72203125 42.06835938 -5.625 42.5 C-4.12839844 43.07234375 -4.12839844 43.07234375 -2.6015625 43.65625 C1.31549722 45.67947604 2.62741526 47.88224579 4 52 C4.26926355 56.1735851 4.35715279 59.01257758 2.9375 62.9375 C0.1371357 65.91853296 -1.97207453 65.82505391 -6 66 C-9.1484375 64.69921875 -9.1484375 64.69921875 -12.375 62.6875 C-13.58709327 61.9476769 -14.79934033 61.20810572 -16.01171875 60.46875 C-16.65028809 60.07042969 -17.28885742 59.67210937 -17.94677734 59.26171875 C-20.13703087 57.91579363 -22.35360283 56.62541162 -24.58203125 55.34375 C-25.34789551 54.90200439 -26.11375977 54.46025879 -26.90283203 54.00512695 C-28.40187637 53.14058941 -29.90153113 52.27710923 -31.40185547 51.41479492 C-32.08779785 51.01365479 -32.77374023 50.61251465 -33.48046875 50.19921875 C-34.39155396 49.67074341 -34.39155396 49.67074341 -35.32104492 49.1315918 C-37 48 -37 48 -38.55200195 46.43676758 C-40.46099445 44.54258096 -42.48907302 43.88221759 -45 43 C-45 42.34 -45 41.68 -45 41 C-45.8971875 40.814375 -45.8971875 40.814375 -46.8125 40.625 C-49 40 -49 40 -52 38 C-52.3984375 35.94140625 -52.3984375 35.94140625 -52.375 33.5625 C-52.38273437 32.78003906 -52.39046875 31.99757813 -52.3984375 31.19140625 C-51.90566676 28.48116717 -51.24234128 27.57775597 -49 26 C-47.68 26 -46.36 26 -45 26 C-44.67 25.01 -44.34 24.02 -44 23 C-42.13671875 21.640625 -42.13671875 21.640625 -39.6875 20.25 C-38.78386719 19.72921875 -37.88023438 19.2084375 -36.94921875 18.671875 C-35.97597656 18.12015625 -35.00273438 17.5684375 -34 17 C-31.99876444 15.83545401 -29.99877972 14.66875606 -28 13.5 C-26.49566406 12.62408203 -26.49566406 12.62408203 -24.9609375 11.73046875 C-22.17533916 10.10247394 -19.39640832 8.46452568 -16.625 6.8125 C-15.41457031 6.09126953 -15.41457031 6.09126953 -14.1796875 5.35546875 C-12.29659632 4.18444251 -10.53207731 2.94078247 -8.75 1.625 C-5.49039362 -0.30113104 -3.72174371 -0.66164333 0 0 Z " fill="#FAFAFA" transform="translate(53,32)"/>
<path d="M0 0 C0.8971875 0.54785156 1.794375 1.09570312 2.71875 1.66015625 C14.00366739 9.20926995 22.4098659 19.83617495 26 33 C26 34.32 26 35.64 26 37 C26.66 37 27.32 37 28 37 C27.99097656 36.42894531 27.98195313 35.85789063 27.97265625 35.26953125 C28.35474503 24.82023372 33.48358429 16.06122904 41 9 C41.99 7.9790625 41.99 7.9790625 43 6.9375 C51.60288373 -1.39654361 60.87495471 -4.45072389 72.6875 -4.5625 C82.80802088 -4.39672001 90.60492041 -2.27683994 98.11328125 4.8203125 C105.76649188 13.66190987 109.36310448 22.75253305 108.9375 34.3125 C107.60751883 47.45944029 100.19852726 61.53865768 91 71 C90.34 71 89.68 71 89 71 C89 71.66 89 72.32 89 73 C88.34 72.67 87.68 72.34 87 72 C87.33209473 71.54786133 87.66418945 71.09572266 88.00634766 70.62988281 C99.50108625 54.89688298 108.52489537 42.16504279 106 22 C105.34 22 104.68 22 104 22 C102.10590489 19.37857237 100.35351122 16.70678608 98.62890625 13.97265625 C94.6711776 7.96177145 89.95088042 4.98596583 83 3 C83 2.34 83 1.68 83 1 C68.01787888 1.18311481 56.46237385 2.64801515 45.19140625 13.5390625 C39.80593974 19.58691259 36.54195173 26.3741448 34 34 C33.34 34 32.68 34 32 34 C31.81824219 34.85464844 31.63648438 35.70929687 31.44921875 36.58984375 C31.19785156 37.69457031 30.94648438 38.79929688 30.6875 39.9375 C30.44386719 41.03964844 30.20023437 42.14179687 29.94921875 43.27734375 C29.63597656 44.17582031 29.32273437 45.07429688 29 46 C27.515 46.495 27.515 46.495 26 47 C25.76216797 45.71029297 25.76216797 45.71029297 25.51953125 44.39453125 C22.90486148 31.14783415 19.6891187 20.79367602 10.01171875 11.14453125 C8 9 8 9 8 7 C7.13375 6.896875 6.2675 6.79375 5.375 6.6875 C1.81683648 5.96268891 -0.79551389 4.6719058 -4 3 C-6.77309521 2.15449685 -9.2595547 1.87183989 -12.15234375 1.8671875 C-12.92900391 1.86589844 -13.70566406 1.86460937 -14.50585938 1.86328125 C-15.70952148 1.86908203 -15.70952148 1.86908203 -16.9375 1.875 C-18.13536133 1.86919922 -18.13536133 1.86919922 -19.35742188 1.86328125 C-23.36995566 1.86993002 -27.08442668 2.00330861 -31 3 C-31 3.66 -31 4.32 -31 5 C-31.721875 5.2475 -32.44375 5.495 -33.1875 5.75 C-41.53157199 9.45847644 -45.97665314 17.24953346 -49.4375 25.375 C-52.05600222 42.24979208 -46.95389801 55.5770525 -37.37890625 69.328125 C-33.96741731 73.87677692 -30.18962965 78.10184383 -26.375 82.3125 C-25.91963867 82.81652344 -25.46427734 83.32054688 -24.99511719 83.83984375 C-22.83209112 86.1863898 -20.67601465 88.25481493 -18.1640625 90.23046875 C-17.44992188 90.81441406 -16.73578125 91.39835937 -16 92 C-16 92.66 -16 93.32 -16 94 C-15.46246094 94.22816406 -14.92492187 94.45632812 -14.37109375 94.69140625 C-11.2757855 96.39969004 -8.72300127 98.63571801 -6.0625 100.9375 C-2.53864297 103.98264438 0.96365681 106.65776587 5 109 C6.80519605 110.27268984 8.59646775 111.56530719 10.375 112.875 C11.3340625 113.57238281 12.293125 114.26976563 13.28125 114.98828125 C14.90453908 116.18942188 16.51431237 117.40972273 18.09375 118.66796875 C21.48285188 121.32744072 21.48285188 121.32744072 25.625 122.0625 C28.50977409 120.77194317 30.54561835 118.99396374 33 117 C34.89108706 115.5770038 36.78718426 114.16064827 38.6875 112.75 C42.59384003 109.83102936 46.45190006 106.87093905 50.25 103.8125 C53.31282133 101.34742283 56.38175083 98.8947705 59.5 96.5 C60.1290625 96.0153125 60.758125 95.530625 61.40625 95.03125 C63 94 63 94 65 94 C65.495 92.515 65.495 92.515 66 91 C67.76091627 89.439766 69.58260808 87.94724988 71.4375 86.5 C74.54625108 84.06812171 76.80451742 82.29322388 79 79 C79.66 79 80.32 79 81 79 C81 78.34 81 77.68 81 77 C83.5 75.375 83.5 75.375 86 74 C79.11888612 89.67364829 56.27373725 102.82422187 43 113 C41.89167683 113.85644708 40.78362653 114.71324734 39.67578125 115.5703125 C38.49227709 116.48449099 37.30868346 117.39855368 36.125 118.3125 C35.56466064 118.7458667 35.00432129 119.1792334 34.42700195 119.62573242 C27.43193813 125.01366412 27.43193813 125.01366412 24.77734375 124.9296875 C20.89188566 123.62907002 17.88644861 121.48582285 14.5625 119.125 C13.86092773 118.63467285 13.15935547 118.1443457 12.43652344 117.63916016 C6.56748701 113.49592196 0.91283411 109.10809153 -4.6953125 104.62109375 C-7.78520345 102.15260819 -10.94417648 99.78800465 -14.125 97.4375 C-22.16924887 91.43931175 -29.97474731 85.18190498 -37 78 C-37.66 77.34 -38.32 76.68 -39 76 C-39 75.01 -39 74.02 -39 73 C-39.57878906 72.95746094 -40.15757813 72.91492188 -40.75390625 72.87109375 C-45.80141696 70.91353742 -48.40695479 63.58293677 -51 59 C-51.51433594 58.13246094 -52.02867188 57.26492187 -52.55859375 56.37109375 C-58.3968529 45.85529759 -59.10152166 33.70450143 -57 22 C-53.98253896 12.46049312 -46.83687404 3.89628446 -38.1875 -1.0625 C-27.5057749 -6.52983106 -10.16021924 -6.31436161 0 0 Z " fill="#F4E3E2" transform="translate(119,4)"/>
<path d="M0 0 C2.46351272 1.33733548 4.81756351 2.70290192 7.1875 4.1875 C8.52212549 5.00652659 9.85676094 5.82553696 11.19140625 6.64453125 C11.83996582 7.04623535 12.48852539 7.44793945 13.15673828 7.86181641 C15.63191357 9.39019617 18.12725221 10.88386335 20.625 12.375 C22.08333333 13.25 23.54166667 14.125 25 15 C25.87527344 15.51820312 26.75054687 16.03640625 27.65234375 16.5703125 C30 18 30 18 31.9375 19.5 C34.09682682 21.1609016 34.09682682 21.1609016 37.1875 22.5625 C40 24 40 24 41 26 C41.84725051 31.08350305 41.84725051 31.08350305 41 34 C36.78229198 38.11684978 31.2145443 40.39272785 26 43 C24.5524002 43.94300787 23.11582657 44.9030472 21.6875 45.875 C18.06525571 48.33402774 14.38662512 50.50059923 10.52734375 52.5625 C8.5616886 53.68052333 6.64591876 54.88642623 4.75390625 56.125 C4.18510742 56.4957666 3.61630859 56.8665332 3.03027344 57.24853516 C1.38351707 58.32842911 -0.25189144 59.42556812 -1.88671875 60.5234375 C-5.53840607 62.25535445 -7.18507965 62.18977487 -11 61 C-13.48018753 58.51981247 -13.32361558 57.61484049 -13.375 54.1875 C-13.40335938 53.33542969 -13.43171875 52.48335937 -13.4609375 51.60546875 C-12.720405 47.4195774 -10.60701864 45.14219097 -7.17431641 42.70239258 C-5.022059 41.34436632 -2.83789243 40.06913393 -0.625 38.8125 C0.1175 38.37486328 0.86 37.93722656 1.625 37.48632812 C5.65791581 35.15279468 9.4882645 33.2819058 14 32 C13.67 31.01 13.34 30.02 13 29 C10.97339828 28.11178766 10.97339828 28.11178766 8.5 27.5625 C2.10663405 25.81302594 -5.10290357 23.69305075 -10 19 C-11.53842912 14.38471264 -11.52848638 9.8197958 -11 5 C-7.92488845 -0.12518592 -5.74903604 -1.67779613 0 0 Z " fill="#FAFAFA" transform="translate(249,36)"/>
<path d="M0 0 C8.1476582 5.37685532 13.90307309 14.03662459 16.5 23.4375 C19.10673471 39.66369137 11.70943864 54.19464506 2.51171875 67.0859375 C1.1875 68.75 1.1875 68.75 -1 71 C-1.66 71 -2.32 71 -3 71 C-3 71.66 -3 72.32 -3 73 C-3.99 72.505 -3.99 72.505 -5 72 C-4.66790527 71.54786133 -4.33581055 71.09572266 -3.99365234 70.62988281 C7.50108625 54.89688298 16.52489537 42.16504279 14 22 C13.34 22 12.68 22 12 22 C10.10590489 19.37857237 8.35351122 16.70678608 6.62890625 13.97265625 C2.6711776 7.96177145 -2.04911958 4.98596583 -9 3 C-9 2.34 -9 1.68 -9 1 C-23.98212112 1.18311481 -35.53762615 2.64801515 -46.80859375 13.5390625 C-52.19406026 19.58691259 -55.45804827 26.3741448 -58 34 C-58.66 34 -59.32 34 -60 34 C-61.485 39.94 -61.485 39.94 -63 46 C-63.33 46 -63.66 46 -64 46 C-64.44109466 36.81052782 -64.39433072 29.29033527 -60 21 C-59.67644531 20.34386719 -59.35289062 19.68773438 -59.01953125 19.01171875 C-56.89570709 14.96344985 -54.36092762 12.0621785 -51 9 C-50.38511719 8.36964844 -49.77023438 7.73929688 -49.13671875 7.08984375 C-37.02488434 -4.75628314 -15.07775731 -9.56638011 0 0 Z " fill="#AFD4ED" transform="translate(211,4)"/>
<path d="M0 0 C9.12885105 5.79197936 15.64427418 14.18211629 18.5625 24.74609375 C21.16923471 40.97228512 13.77193864 55.50323881 4.57421875 68.39453125 C3.25 70.05859375 3.25 70.05859375 1.0625 72.30859375 C0.4025 72.30859375 -0.2575 72.30859375 -0.9375 72.30859375 C-0.9375 72.96859375 -0.9375 73.62859375 -0.9375 74.30859375 C-1.9275 73.81359375 -1.9275 73.81359375 -2.9375 73.30859375 C-2.60540527 72.85645508 -2.27331055 72.40431641 -1.93115234 71.93847656 C13.27224012 51.95150157 13.27224012 51.95150157 16.61328125 27.86328125 C15.65983053 23.44089278 13.89630946 19.42601499 12.0625 15.30859375 C11.75183594 14.40753906 11.44117188 13.50648437 11.12109375 12.578125 C10.77175781 11.82917969 10.42242187 11.08023437 10.0625 10.30859375 C9.0725 9.97859375 8.0825 9.64859375 7.0625 9.30859375 C6.52625 8.54546875 5.99 7.78234375 5.4375 6.99609375 C0.56365615 1.48095465 -6.7131142 -0.4000693 -13.8828125 -0.89453125 C-23.3122437 -1.03354006 -31.96107569 -0.09479046 -39.9375 5.30859375 C-40.5975 5.30859375 -41.2575 5.30859375 -41.9375 5.30859375 C-41.9375 5.96859375 -41.9375 6.62859375 -41.9375 7.30859375 C-43.6875 8.81640625 -43.6875 8.81640625 -45.9375 10.43359375 C-46.68 10.97242188 -47.4225 11.51125 -48.1875 12.06640625 C-48.765 12.47632813 -49.3425 12.88625 -49.9375 13.30859375 C-46.85438194 6.36778116 -40.90234504 2.41398336 -34.125 -0.62890625 C-23.82946053 -4.25274415 -9.98118224 -5.00791956 0 0 Z " fill="#F4F6F9" transform="translate(208.9375,2.69140625)"/>
<path d="M0 0 C0.66 0 1.32 0 2 0 C1.41358041 3.52633646 0.12913893 5.2453807 -2.3125 7.8125 C-7.55542608 13.61295605 -10.42137298 19.65091299 -13 27 C-13.66 27 -14.32 27 -15 27 C-16.485 32.94 -16.485 32.94 -18 39 C-18.33 39 -18.66 39 -19 39 C-19.44262105 29.77872803 -19.34887185 22.33280341 -15 14 C-14.73445312 13.35546875 -14.46890625 12.7109375 -14.1953125 12.046875 C-11.5250051 6.19763022 -6.45493614 3.96096716 -1 1 C-0.67 0.67 -0.34 0.34 0 0 Z " fill="#AED1EA" transform="translate(166,11)"/>
<path d="M0 0 C2.5 0.875 2.5 0.875 3.8125 3.4375 C4.1528125 4.6440625 4.1528125 4.6440625 4.5 5.875 C3.5479279 6.88096297 2.58812654 7.87961563 1.625 8.875 C1.09132812 9.431875 0.55765625 9.98875 0.0078125 10.5625 C-1.5 11.875 -1.5 11.875 -3.5 11.875 C-3.5 12.535 -3.5 13.195 -3.5 13.875 C-5.15 13.875 -6.8 13.875 -8.5 13.875 C-9.94430855 10.98638291 -9.87688506 9.07852299 -9.5 5.875 C-4.35501066 -0.21775053 -4.35501066 -0.21775053 0 0 Z " fill="#E87E96" transform="translate(175.5,18.125)"/>
<path d="M0 0 C0 0.66 0 1.32 0 2 C-1.79296875 3.4375 -1.79296875 3.4375 -4.1875 5 C-4.96480469 5.515625 -5.74210937 6.03125 -6.54296875 6.5625 C-8.9717998 7.98350131 -11.38344284 8.97954271 -14 10 C-15.36365283 10.95824253 -16.70794169 11.94721175 -18 13 C-17.71884546 16.40314146 -17.37907163 17.67160288 -14.75 19.94921875 C-13.8425 20.52285156 -12.935 21.09648438 -12 21.6875 C-7.08045977 24.83908046 -7.08045977 24.83908046 -6 27 C-11.75 26.125 -11.75 26.125 -14 25 C-14 24.34 -14 23.68 -14 23 C-14.598125 22.87625 -15.19625 22.7525 -15.8125 22.625 C-18 22 -18 22 -21 20 C-21.3984375 17.94140625 -21.3984375 17.94140625 -21.375 15.5625 C-21.38273437 14.78003906 -21.39046875 13.99757813 -21.3984375 13.19140625 C-20.90566676 10.48116717 -20.24234128 9.57775597 -18 8 C-16.68 8 -15.36 8 -14 8 C-13.67 7.01 -13.34 6.02 -13 5 C-8.79701479 2.30374534 -5.10434239 0 0 0 Z " fill="#F1F3F5" transform="translate(22,50)"/>
<path d="M0 0 C0.83144531 0.00902344 1.66289062 0.01804687 2.51953125 0.02734375 C4.55481337 0.0507378 6.58994564 0.08660275 8.625 0.125 C8.625 0.785 8.625 1.445 8.625 2.125 C9.285 2.455 9.945 2.785 10.625 3.125 C9.60921875 3.00640625 8.5934375 2.8878125 7.546875 2.765625 C-1.7817578 1.83549072 -8.57287586 2.50884072 -17.375 6.125 C-18.10203125 6.25132813 -18.8290625 6.37765625 -19.578125 6.5078125 C-21.53558521 6.95245628 -21.53558521 6.95245628 -22.3046875 8.859375 C-22.65789062 9.60703125 -23.01109375 10.3546875 -23.375 11.125 C-25.03492385 12.92098318 -26.7483972 14.6683101 -28.5 16.375 C-29.41007813 17.26703125 -30.32015625 18.1590625 -31.2578125 19.078125 C-31.95648438 19.75359375 -32.65515625 20.4290625 -33.375 21.125 C-33.705 20.135 -34.035 19.145 -34.375 18.125 C-24.81942271 6.44596109 -15.3481111 -0.3182224 0 0 Z " fill="#C691AE" transform="translate(193.375,4.875)"/>
<path d="M0 0 C1.32 0 2.64 0 4 0 C4.375 3.1875 4.375 3.1875 4 7 C1.14515711 10.12040967 -0.61113838 11.84903678 -4.875 12.3125 C-5.926875 12.1578125 -5.926875 12.1578125 -7 12 C-7.3125 9.8125 -7.3125 9.8125 -7 7 C-4.625 4.3125 -4.625 4.3125 -2 2 C-1.34 1.34 -0.68 0.68 0 0 Z " fill="#FB717E" transform="translate(90,14)"/>
<path d="M0 0 C0.33 0.66 0.66 1.32 1 2 C0.35891863 3.67667436 -0.31471955 5.34089996 -1 7 C-1.7335757 9.65367318 -2.36415384 12.32036263 -3 15 C-3.66 15 -4.32 15 -5 15 C-4.67 16.65 -4.34 18.3 -4 20 C-4.66 20 -5.32 20 -6 20 C-6 21.32 -6 22.64 -6 24 C-5.34 24 -4.68 24 -4 24 C-4.061875 24.969375 -4.12375 25.93875 -4.1875 26.9375 C-4.21184629 30.93029119 -3.07540682 34.18771279 -1.65625 37.88671875 C-1 40 -1 40 -1 44 C-7.48981666 36.33021668 -7.43305446 25.44769973 -6.7890625 15.859375 C-5.8682067 9.63925466 -3.76681259 5.01762441 0 0 Z " fill="#F9F7F7" transform="translate(68,15)"/>
<path d="M0 0 C2.6875 2.875 2.6875 2.875 5 6 C5.7734375 6.7115625 5.7734375 6.7115625 6.5625 7.4375 C8.97207835 10.0566069 10.42600336 12.79579256 12 16 C11.609375 18.22265625 11.609375 18.22265625 11 20 C10.41992188 19.10796875 9.83984375 18.2159375 9.2421875 17.296875 C8.45372586 16.11418254 7.66462935 14.93191316 6.875 13.75 C6.49601562 13.16347656 6.11703125 12.57695312 5.7265625 11.97265625 C1.70445664 6.00653256 -3.0505723 2.98555077 -10 1 C-6.41429687 -1.3444982 -4.0461432 -1.32118961 0 0 Z " fill="#B9CCE1" transform="translate(212,6)"/>
<path d="M0 0 C0 0.33 0 0.66 0 1 C-2.31 1 -4.62 1 -7 1 C-7.495 0.01 -7.495 0.01 -8 -1 C-9.299375 -0.979375 -10.59875 -0.95875 -11.9375 -0.9375 C-13.29165633 -0.91600546 -14.64756083 -0.92851801 -16 -1 C-16.33 -1.33 -16.66 -1.66 -17 -2 C-23.16156599 -2.63571713 -28.28855136 -1.92633938 -33.9921875 0.44140625 C-36.36216097 1.10075685 -37.69872576 0.77913096 -40 0 C-28.77589639 -6.61631371 -11.22410361 -6.61631371 0 0 Z " fill="#F7F5F6" transform="translate(119,4)"/>
<path d="M0 0 C3.45615727 1.21432553 5.48806925 2.38340546 8 5 C9.66590457 6.00126907 11.33270407 7.00104952 13 8 C14.78475994 9.25119942 16.55514394 10.52309404 18.3125 11.8125 C19.26769531 12.51246094 20.22289062 13.21242188 21.20703125 13.93359375 C24.26563399 16.196532 27.31234863 18.47419663 30.34375 20.7734375 C31.8612404 21.89723936 33.42883263 22.95255509 35 24 C29.91346889 23.51184922 26.60931069 20.9994892 22.5625 18.125 C21.86962891 17.64047363 21.17675781 17.15594727 20.46289062 16.65673828 C15.54751299 13.18488943 10.74127882 9.58052967 6 5.875 C5.39486572 5.4020752 4.78973145 4.92915039 4.16625977 4.44189453 C2.7562072 3.32087692 1.37465111 2.16415766 0 1 C0 0.67 0 0.34 0 0 Z " fill="#F8EEF0" transform="translate(111,105)"/>
<path d="M0 0 C0 0.99 0 1.98 0 3 C-0.66 3 -1.32 3 -2 3 C-2.2165625 4.175625 -2.2165625 4.175625 -2.4375 5.375 C-3 8 -3 8 -4 10 C-4.66 10 -5.32 10 -6 10 C-6 10.66 -6 11.32 -6 12 C-5.34 12 -4.68 12 -4 12 C-4.33 13.98 -4.66 15.96 -5 18 C-5.99 18.33 -6.98 18.66 -8 19 C-9.22520264 22.00847418 -9.22520264 22.00847418 -10 25 C-10.33 25 -10.66 25 -11 25 C-11.13995044 16.14313641 -7.85894608 9.29902817 -3 2 C-2.01 1.34 -1.02 0.68 0 0 Z " fill="#D7E7F3" transform="translate(158,16)"/>
<path d="M0 0 C0 3.20221598 -0.610729 4.69648577 -1.9375 7.5625 C-2.29714844 8.34753906 -2.65679687 9.13257813 -3.02734375 9.94140625 C-3.66993965 11.30143854 -4.32730136 12.65460271 -5 14 C-5.66 14 -6.32 14 -7 14 C-8.485 19.94 -8.485 19.94 -10 26 C-10.33 26 -10.66 26 -11 26 C-11.37952295 19.80112515 -10.8352113 15.5522888 -8 10 C-7.01 10 -6.02 10 -5 10 C-4.67 8.02 -4.34 6.04 -4 4 C-4.66 4 -5.32 4 -6 4 C-6 3.34 -6 2.68 -6 2 C-4.7934375 1.7834375 -4.7934375 1.7834375 -3.5625 1.5625 C-1.07896294 1.25864751 -1.07896294 1.25864751 0 0 Z " fill="#C0BBD1" transform="translate(158,24)"/>
<path d="M0 0 C2.97 0.495 2.97 0.495 6 1 C6.93423645 4.01031744 7.04449911 4.86650268 6 8 C6.66 8 7.32 8 8 8 C8.12375 8.721875 8.2475 9.44375 8.375 10.1875 C8.9904931 12.95721894 9.88444374 15.3970354 11 18 C10.34 18 9.68 18 9 18 C7.54166682 15.96310519 6.22772949 13.95211133 4.9375 11.8125 C4.57333984 11.23435547 4.20917969 10.65621094 3.83398438 10.06054688 C1.80183943 6.73624323 0.4747908 3.87867557 0 0 Z " fill="#F5EEEC" transform="translate(67,58)"/>
<path d="M0 0 C0.66 0 1.32 0 2 0 C3.14501953 1.37695312 3.14501953 1.37695312 4.3828125 3.28125 C4.82753906 3.95800781 5.27226563 4.63476562 5.73046875 5.33203125 C6.19066406 6.04746094 6.65085937 6.76289062 7.125 7.5 C7.82689453 8.57314453 7.82689453 8.57314453 8.54296875 9.66796875 C9.70152501 11.44126915 10.85156066 13.2201309 12 15 C9 16 9 16 7.0625 15.5 C3.84068556 13.15686223 2.68466551 10.61891109 1 7 C1.25 4.5625 1.25 4.5625 2 3 C1.34 3 0.68 3 0 3 C0 2.01 0 1.02 0 0 Z " fill="#F2DDDA" transform="translate(73,63)"/>
<path d="M0 0 C0.6875 1.61328125 0.6875 1.61328125 1 4 C-2.19906329 11.86085617 -7.03163345 19.9056521 -13 26 C-13.66 26 -14.32 26 -15 26 C-15 26.66 -15 27.32 -15 28 C-15.66 27.67 -16.32 27.34 -17 27 C-16.66266846 26.5373877 -16.32533691 26.07477539 -15.9777832 25.59814453 C-6.99583479 13.39516179 -6.99583479 13.39516179 0 0 Z " fill="#EDE3EB" transform="translate(223,49)"/>
<path d="M0 0 C0.99 0 1.98 0 3 0 C3.21153631 4.16021408 3.34125965 7.08997426 1.875 11 C0 13 0 13 -3.1875 13.3125 C-4.115625 13.209375 -5.04375 13.10625 -6 13 C-6 12.34 -6 11.68 -6 11 C-4.35 10.67 -2.7 10.34 -1 10 C-1.01160156 9.36191406 -1.02320313 8.72382812 -1.03515625 8.06640625 C-1.04417969 7.24011719 -1.05320312 6.41382812 -1.0625 5.5625 C-1.07410156 4.73878906 -1.08570313 3.91507812 -1.09765625 3.06640625 C-1 1 -1 1 0 0 Z " fill="#F2F3F4" transform="translate(54,84)"/>
<path d="M0 0 C0.87507202 0.32242676 0.87507202 0.32242676 1.76782227 0.65136719 C1.17356445 1.06386719 0.57930664 1.47636719 -0.03295898 1.90136719 C-0.86182617 2.47886719 -1.69069336 3.05636719 -2.54467773 3.65136719 C-3.45088867 4.28042969 -4.35709961 4.90949219 -5.29077148 5.55761719 C-7.2884847 6.97962819 -9.25950253 8.43974784 -11.20483398 9.93261719 C-12.16260742 10.66480469 -13.12038086 11.39699219 -14.10717773 12.15136719 C-14.99147461 12.84230469 -15.87577148 13.53324219 -16.78686523 14.24511719 C-19.23217773 15.65136719 -19.23217773 15.65136719 -21.55249023 15.37011719 C-22.10678711 15.13292969 -22.66108398 14.89574219 -23.23217773 14.65136719 C-22.5734668 14.28527344 -21.91475586 13.91917969 -21.23608398 13.54199219 C-18.81446803 12.01785419 -16.63116813 10.45605803 -14.38452148 8.69824219 C-13.69680664 8.16199219 -13.0090918 7.62574219 -12.30053711 7.07324219 C-10.86993709 5.95079158 -9.44550212 4.82044235 -8.02709961 3.68261719 C-7.34067383 3.15152344 -6.65424805 2.62042969 -5.94702148 2.07324219 C-5.32947998 1.58436523 -4.71193848 1.09548828 -4.07568359 0.59179688 C-2.23217773 -0.34863281 -2.23217773 -0.34863281 0 0 Z " fill="#EFE2E8" transform="translate(166.232177734375,112.3486328125)"/>
<path d="M0 0 C6.47612295 2.22616726 12.43841715 5.8682193 17 11 C12.4547108 11.43130481 10.04480635 10.19098354 6.25 7.75 C5.28578125 7.14671875 4.3215625 6.5434375 3.328125 5.921875 C0.89361807 3.91218136 0.29979189 3.07968031 0 0 Z " fill="#F2F2F4" transform="translate(29,84)"/>
<path d="M0 0 C4.77618339 1.10219617 8.06495259 1.9360882 11 6 C11.75 9.25 11.75 9.25 12 12 C6.7338541 9.14123508 2.31043375 5.67106467 0 0 Z " fill="#F9EAEB" transform="translate(80,78)"/>
<path d="M0 0 C0.66 0.66 1.32 1.32 2 2 C0.02 2.99 0.02 2.99 -2 4 C-2 4.66 -2 5.32 -2 6 C-5.85831875 9.6642613 -9.64147506 11.60791281 -15 12 C-15 11.34 -15 10.68 -15 10 C-12.98828125 8.6328125 -12.98828125 8.6328125 -10.3125 7.125 C-6.61631199 4.98592949 -3.23859582 2.80678304 0 0 Z " fill="#F0F1F4" transform="translate(40,53)"/>
<path d="M0 0 C1.32 0.33 2.64 0.66 4 1 C0.04 4.96 -3.92 8.92 -8 13 C-8.33 12.01 -8.66 11.02 -9 10 C-6.03 6.7 -3.06 3.4 0 0 Z " fill="#CB7C96" transform="translate(168,13)"/>
<path d="M0 0 C0.66 0 1.32 0 2 0 C1.61402985 2.79828356 1.19863427 3.8205884 -0.9375 5.75 C-3 7 -3 7 -5 7 C-5 7.66 -5 8.32 -5 9 C-7.73955562 12.04395069 -10.18063472 14.44396229 -14 16 C-12.46371994 12.1680287 -10.10154038 10.10175925 -7 7.4375 C-4.18277108 5.00927798 -2.07021245 3.10531867 0 0 Z " fill="#CA8AA6" transform="translate(205,74)"/>
<path d="M0 0 C-2.35463849 3.53195773 -4.13385011 4.37621705 -8 6 C-9.32 6 -10.64 6 -12 6 C-4.8 -1.6 -4.8 -1.6 0 0 Z " fill="#F2F4F4" transform="translate(283,73)"/>
<path d="M0 0 C3.46941546 0.45822468 6.67395049 0.89131683 10 2 C10.33 2.99 10.66 3.98 11 5 C7.7 4.34 4.4 3.68 1 3 C0.67 2.01 0.34 1.02 0 0 Z " fill="#F1F1F4" transform="translate(249,58)"/>
<path d="M0 0 C0.99 0.33 1.98 0.66 3 1 C1.8553125 1.8971875 1.8553125 1.8971875 0.6875 2.8125 C-1.89109949 4.82087437 -1.89109949 4.82087437 -3.5625 6.625 C-5.22546327 8.21566052 -6.91031534 9.06324481 -9 10 C-7.49111169 5.77511272 -4.67376036 4.34495342 -1 2 C-0.67 1.34 -0.34 0.68 0 0 Z " fill="#CC85A0" transform="translate(187,91)"/>
<path d="M0 0 C5 2 5 2 6.875 4.375 C8 7 8 7 7 11 C4.69 7.37 2.38 3.74 0 0 Z " fill="#C39DBC" transform="translate(216,15)"/>
<path d="M0 0 C1.32 0.33 2.64 0.66 4 1 C1.69 3.31 -0.62 5.62 -3 8 C-3.33 7.01 -3.66 6.02 -4 5 C-2.0625 2.3125 -2.0625 2.3125 0 0 Z " fill="#F46674" transform="translate(79,13)"/>
<path d="M0 0 C5.75 2.625 5.75 2.625 8 6 C2.46153846 5.38461538 2.46153846 5.38461538 0.125 3.4375 C-0.24625 2.963125 -0.6175 2.48875 -1 2 C-0.67 1.34 -0.34 0.68 0 0 Z " fill="#F0F2F4" transform="translate(8,71)"/>
<path d="M0 0 C0.66 0 1.32 0 2 0 C6 5.41176471 6 5.41176471 6 8 C4.35 7.67 2.7 7.34 1 7 C1.33 5.68 1.66 4.36 2 3 C1.34 3 0.68 3 0 3 C0 2.01 0 1.02 0 0 Z " fill="#F3D0CD" transform="translate(73,63)"/>
<path d="M0 0 C0.66 0 1.32 0 2 0 C2.061875 0.61875 2.12375 1.2375 2.1875 1.875 C2.81740446 4.27117929 2.81740446 4.27117929 5.5 5.125 C6.7375 5.558125 6.7375 5.558125 8 6 C8.33 6.66 8.66 7.32 9 8 C5.59687262 6.94124926 2.98646769 5.99097846 0 4 C0 2.68 0 1.36 0 0 Z " fill="#EFF0F2" transform="translate(240,50)"/>
<path d="M0 0 C1.32 0 2.64 0 4 0 C4 3 4 3 2.6875 4.38671875 C1.125 5.59114583 -0.4375 6.79557292 -2 8 C-1.47731534 5.23723823 -0.89130413 2.6739124 0 0 Z " fill="#ECEDEF" transform="translate(242,36)"/>
<path d="M0 0 C0 0.99 0 1.98 0 3 C-0.66 3 -1.32 3 -2 3 C-2.2165625 4.175625 -2.2165625 4.175625 -2.4375 5.375 C-3 8 -3 8 -4 10 C-4.66 10 -5.32 10 -6 10 C-6.33 10.66 -6.66 11.32 -7 12 C-6.29211272 8.31898615 -4.8397605 5.25496089 -3 2 C-2.01 1.34 -1.02 0.68 0 0 Z " fill="#EFF6F9" transform="translate(158,16)"/>
<path d="M0 0 C0.99 0.33 1.98 0.66 3 1 C-1.455 4.465 -1.455 4.465 -6 8 C-6 7.01 -6 6.02 -6 5 C-3.1875 2.25 -3.1875 2.25 0 0 Z " fill="#CE7C97" transform="translate(171,104)"/>
<path d="M0 0 C0.66 0 1.32 0 2 0 C0.63055898 2.94956528 -0.87830409 5.52468811 -3 8 C-3.66 8 -4.32 8 -5 8 C-5 8.66 -5 9.32 -5 10 C-5.66 9.67 -6.32 9.34 -7 9 C-5.88266271 7.49428343 -4.75589965 5.99555708 -3.625 4.5 C-2.99851563 3.6646875 -2.37203125 2.829375 -1.7265625 1.96875 C-1.15679687 1.3190625 -0.58703125 0.669375 0 0 Z " fill="#F3ECF1" transform="translate(213,67)"/>
<path d="M0 0 C-0.99 0.33 -1.98 0.66 -3 1 C-3 1.66 -3 2.32 -3 3 C-4.65 3.33 -6.3 3.66 -8 4 C-7.67 2.68 -7.34 1.36 -7 0 C-3.98968256 -0.93423645 -3.13349732 -1.04449911 0 0 Z " fill="#F0F2F4" transform="translate(49,35)"/>
<path d="M0 0 C-1 3 -1 3 -4 5 C-4.99 5 -5.98 5 -7 5 C-7 4.01 -7 3.02 -7 2 C-4.35261084 0.5393715 -3.10551666 0 0 0 Z " fill="#F2F3F4" transform="translate(262,69)"/>
<path d="M0 0 C4.31392226 0.4793247 6.16569547 1.7457985 9 5 C5.65626525 4.44271087 2.96687001 3.64826111 0 2 C0 1.34 0 0.68 0 0 Z " fill="#EDEFF2" transform="translate(27,67)"/>
<path d="M0 0 C-2.97 1.65 -5.94 3.3 -9 5 C-8 1 -8 1 -6.1875 -0.3125 C-4 -1 -4 -1 0 0 Z " fill="#F0F1F4" transform="translate(34,44)"/>
<path d="M0 0 C2.64 0.66 5.28 1.32 8 2 C8.33 3.65 8.66 5.3 9 7 C8.67 6.34 8.34 5.68 8 5 C7.030625 4.690625 6.06125 4.38125 5.0625 4.0625 C2 3 2 3 0 0 Z " fill="#EDEFF1" transform="translate(45,76)"/>
<path d="M0 0 C0.33 1.32 0.66 2.64 1 4 C-1.31 4.33 -3.62 4.66 -6 5 C-2.25 1.125 -2.25 1.125 0 0 Z " fill="#F1F3F4" transform="translate(267,80)"/>
<path d="M0 0 C2.97 0.495 2.97 0.495 6 1 C6.33 1.99 6.66 2.98 7 4 C5.02 4.99 5.02 4.99 3 6 C3 5.01 3 4.02 3 3 C1.56249809 1.31201173 1.56249809 1.31201173 0 0 Z " fill="#EDEFF1" transform="translate(261,63)"/>
<path d="M0 0 C2.97 0.99 5.94 1.98 9 3 C9 3.66 9 4.32 9 5 C4.68607774 4.5206753 2.83430453 3.2542015 0 0 Z " fill="#EFF0F4" transform="translate(269,51)"/>
<path d="M0 0 C0.99 0.33 1.98 0.66 3 1 C-2.75 6 -2.75 6 -5 6 C-4.67 5.01 -4.34 4.02 -4 3 C-3.34 3 -2.68 3 -2 3 C-2 2.34 -2 1.68 -2 1 C-1.34 0.67 -0.68 0.34 0 0 Z " fill="#CC718D" transform="translate(157,115)"/>
<path d="M0 0 C0.33 0 0.66 0 1 0 C1.125 5.75 1.125 5.75 0 8 C-1.32 7.67 -2.64 7.34 -4 7 C-3.525625 6.401875 -3.05125 5.80375 -2.5625 5.1875 C-0.83534256 2.99617076 -0.83534256 2.99617076 0 0 Z " fill="#EEF1F1" transform="translate(288,63)"/>
</svg>
